<svg xmlns="http://www.w3.org/2000/svg" viewBox="0 0 1600 1200" preserveAspectRatio="xMidYMid slice"><defs><linearGradient id="sky" x1="0" y1="0" x2="1" y2="1"><stop offset="0%" stop-color="#f7efe0"/><stop offset="38%" stop-color="#dfefff"/><stop offset="100%" stop-color="#101828"/></linearGradient><radialGradient id="sun" cx="64%" cy="34%" r="38%"><stop offset="0%" stop-color="#fff"/><stop offset="18%" stop-color="#ffe1a1"/><stop offset="55%" stop-color="#d7a44f" stop-opacity=".24"/><stop offset="100%" stop-color="#d7a44f" stop-opacity="0"/></radialGradient><linearGradient id="fade" x1="0" y1="0" x2="0" y2="1"><stop offset="0" stop-color="#000" stop-opacity="0"/><stop offset="1" stop-color="#07111F" stop-opacity=".74"/></linearGradient><filter id="sh"><feDropShadow dx="0" dy="30" stdDeviation="25" flood-opacity=".34"/></filter></defs><rect width="1600" height="1200" fill="url(#sky)"/><rect width="1600" height="1200" fill="url(#sun)"/><path d="M0 770 C250 600 445 710 660 570 C860 440 1030 590 1250 465 C1400 380 1500 410 1600 350 V1200 H0Z" fill="#eaf3fb" opacity=".50"/><path d="M-80 1200 L560 480 L1190 1200Z" fill="#121d33" opacity=".93" filter="url(#sh)"/><path d="M420 1200 L1030 600 L1660 1200Z" fill="#0a1324" opacity=".86" filter="url(#sh)"/><g transform="translate(1080 470)" filter="url(#sh)"><rect x="74" y="0" width="42" height="390" rx="18" fill="#16120D"/><rect x="0" y="112" width="190" height="42" rx="18" fill="#16120D"/></g><rect width="1600" height="1200" fill="url(#fade)"/></svg>